{
    "asset" : {
        "generator" : "Khronos glTF Blender I/O v3.3.32",
        "version" : "2.0"
    },
    "scene" : 0,
    "scenes" : [
        {
            "name" : "Scene",
            "nodes" : [
                0,
                1
            ]
        }
    ],
    "nodes" : [
        {
            "mesh" : 0,
            "name" : "Sphere.001"
        },
        {
            "mesh" : 1,
            "name" : "Sphere"
        }
    ],
    "materials" : [
        {
            "doubleSided" : true,
            "name" : "Material.002",
            "pbrMetallicRoughness" : {
                "baseColorTexture" : {
                    "index" : 0
                },
                "metallicFactor" : 0,
                "roughnessFactor" : 0.5
            }
        },
        {
            "doubleSided" : true,
            "name" : "Material.003",
            "pbrMetallicRoughness" : {
                "baseColorTexture" : {
                    "index" : 1
                },
                "metallicFactor" : 0,
                "roughnessFactor" : 0.6909090876579285
            }
        }
    ],
    "meshes" : [
        {
            "name" : "Sphere.002",
            "primitives" : [
                {
                    "attributes" : {
                        "POSITION" : 0,
                        "NORMAL" : 1,
                        "TEXCOORD_0" : 2
                    },
                    "indices" : 3,
                    "material" : 0
                }
            ]
        },
        {
            "name" : "Sphere",
            "primitives" : [
                {
                    "attributes" : {
                        "POSITION" : 4,
                        "NORMAL" : 5,
                        "TEXCOORD_0" : 6
                    },
                    "indices" : 7,
                    "material" : 1
                }
            ]
        }
    ],
    "textures" : [
        {
            "sampler" : 0,
            "source" : 0
        },
        {
            "sampler" : 0,
            "source" : 0
        }
    ],
    "images" : [
        {
            "mimeType" : "image/png",
            "name" : "baseColorOrange",
            "uri" : "baseColorOrange.png"
        }
    ],
    "accessors" : [
        {
            "bufferView" : 0,
            "componentType" : 5126,
            "count" : 1160,
            "max" : [
                1.0268058776855469,
                1.036474585533142,
                1.0291327238082886
            ],
            "min" : [
                -1.0290547609329224,
                -1.0353529453277588,
                -1.0288223028182983
            ],
            "type" : "VEC3"
        },
        {
            "bufferView" : 1,
            "componentType" : 5126,
            "count" : 1160,
            "type" : "VEC3"
        },
        {
            "bufferView" : 2,
            "componentType" : 5126,
            "count" : 1160,
            "type" : "VEC2"
        },
        {
            "bufferView" : 3,
            "componentType" : 5123,
            "count" : 5316,
            "type" : "SCALAR"
        },
        {
            "bufferView" : 4,
            "componentType" : 5126,
            "count" : 3131,
            "max" : [
                0.9420967102050781,
                1.025278091430664,
                1.0315344333648682
            ],
            "min" : [
                -1.0085673332214355,
                -1.005474328994751,
                -1.0018612146377563
            ],
            "type" : "VEC3"
        },
        {
            "bufferView" : 5,
            "componentType" : 5126,
            "count" : 3131,
            "type" : "VEC3"
        },
        {
            "bufferView" : 6,
            "componentType" : 5126,
            "count" : 3131,
            "type" : "VEC2"
        },
        {
            "bufferView" : 7,
            "componentType" : 5123,
            "count" : 9981,
            "type" : "SCALAR"
        }
    ],
    "bufferViews" : [
        {
            "buffer" : 0,
            "byteLength" : 13920,
            "byteOffset" : 0,
            "target" : 34962
        },
        {
            "buffer" : 0,
            "byteLength" : 13920,
            "byteOffset" : 13920,
            "target" : 34962
        },
        {
            "buffer" : 0,
            "byteLength" : 9280,
            "byteOffset" : 27840,
            "target" : 34962
        },
        {
            "buffer" : 0,
            "byteLength" : 10632,
            "byteOffset" : 37120,
            "target" : 34963
        },
        {
            "buffer" : 0,
            "byteLength" : 37572,
            "byteOffset" : 47752,
            "target" : 34962
        },
        {
            "buffer" : 0,
            "byteLength" : 37572,
            "byteOffset" : 85324,
            "target" : 34962
        },
        {
            "buffer" : 0,
            "byteLength" : 25048,
            "byteOffset" : 122896,
            "target" : 34962
        },
        {
            "buffer" : 0,
            "byteLength" : 19962,
            "byteOffset" : 147944,
            "target" : 34963
        }
    ],
    "samplers" : [
        {
            "magFilter" : 9729,
            "minFilter" : 9987
        }
    ],
    "buffers" : [
        {
            "byteLength" : 167908,
            "uri" : "planetesBoids.bin"
        }
    ]
}
