{"accessors" : [{"bufferView" : 0, "byteOffset" : 0, "componentType" : 5123, "count" : 132, "type" : "SCALAR", "max" : [111], "min" : [0]}, {"bufferView" : 1, "byteOffset" : 0, "componentType" : 5126, "count" : 112, "type" : "VEC3", "max" : [57.923004150390625, 1.1905357837677002, 1.2225751876831055], "min" : [-1, -1.1905357837677002, -1.2225751876831055], "name" : "POSITION"}, {"bufferView" : 1, "byteOffset" : 12, "componentType" : 5126, "count" : 112, "type" : "VEC3", "max" : [1.0000044107437134, 1.0000044107437134, 1.0000044107437134], "min" : [-1.0000044107437134, -1.0000044107437134, -1.0000044107437134], "name" : "NORMAL"}, {"bufferView" : 1, "byteOffset" : 24, "componentType" : 5126, "count" : 112, "type" : "VEC2", "max" : [0.8430696129798889, 1], "min" : [0.15693041682243347, 0.03193044662475586], "name" : "TEXCOORD_0"}, {"bufferView" : 0, "byteOffset" : 264, "componentType" : 5123, "count" : 96, "type" : "SCALAR", "max" : [78], "min" : [0]}, {"bufferView" : 2, "byteOffset" : 0, "componentType" : 5126, "count" : 79, "type" : "VEC3", "max" : [6.525747299194336, 1.1905357837677002, 1.2225751876831055], "min" : [-1, -1.1905357837677002, -1.2225751876831055], "name" : "POSITION"}, {"bufferView" : 2, "byteOffset" : 12, "componentType" : 5126, "count" : 79, "type" : "VEC3", "max" : [1.0000044107437134, 1.0000042915344238, 1.0000044107437134], "min" : [0, -1.0000042915344238, -1.0000044107437134], "name" : "NORMAL"}, {"bufferView" : 2, "byteOffset" : 24, "componentType" : 5126, "count" : 79, "type" : "VEC2", "max" : [0.8750000596046448, 0.75], "min" : [0.125, 0], "name" : "TEXCOORD_0"}, {"bufferView" : 0, "byteOffset" : 456, "componentType" : 5123, "count" : 708, "type" : "SCALAR", "max" : [589], "min" : [0]}, {"bufferView" : 3, "byteOffset" : 0, "componentType" : 5126, "count" : 590, "type" : "VEC3", "max" : [-0.4745594561100006, 1.5928902626037598, 6.15051794052124], "min" : [-0.8623233437538147, -0.3636235296726227, -6.15051794052124], "name" : "POSITION"}, {"bufferView" : 3, "byteOffset" : 12, "componentType" : 5126, "count" : 590, "type" : "VEC3", "max" : [1.0000044107437134, 1.0000044107437134, 1.0000044107437134], "min" : [-1.0000044107437134, -1.0000044107437134, -1.0000044107437134], "name" : "NORMAL"}, {"bufferView" : 3, "byteOffset" : 24, "componentType" : 5126, "count" : 590, "type" : "VEC2", "max" : [0.875, 1], "min" : [0.1249999925494194, 0], "name" : "TEXCOORD_0"}], "asset" : {"generator" : "Aspose.3D 23.2", "version" : "2.0"}, "buffers" : [{"uri" : "data:application/octet-stream;base64,", "byteLength" : 31840}], "bufferViews" : [{"buffer" : 0, "byteOffset" : 0, "byteLength" : 1872, "target" : 34963}, {"buffer" : 0, "byteOffset" : 1876, "byteLength" : 4224, "byteStride" : 32, "target" : 34962}, {"buffer" : 0, "byteOffset" : 6104, "byteLength" : 3072, "byteStride" : 32, "target" : 34962}, {"buffer" : 0, "byteOffset" : 9180, "byteLength" : 22656, "byteStride" : 32, "target" : 34962}], "materials" : [{"name" : "Material", "pbrMetallicRoughness" : {"baseColorFactor" : [0.7758219242095947, 0.5906184315681458, 0.3094690144062042, 1], "metallicFactor" : 0, "roughnessFactor" : 0.5}, "emissiveFactor" : [0, 0, 0], "alphaMode" : "OPAQUE", "doubleSided" : true}, {"name" : "Material.001", "pbrMetallicRoughness" : {"baseColorFactor" : [0.0886552706360817, 0.3139885663986206, 0.15896089375019073, 1], "metallicFactor" : 0, "roughnessFactor" : 0.5}, "emissiveFactor" : [0, 0, 0], "alphaMode" : "OPAQUE", "doubleSided" : true}, {"name" : "Material.001", "pbrMetallicRoughness" : {"baseColorFactor" : [0.0886552706360817, 0.3139885663986206, 0.15896089375019073, 1], "metallicFactor" : 0, "roughnessFactor" : 0.5}, "emissiveFactor" : [0, 0, 0], "alphaMode" : "OPAQUE", "doubleSided" : true}], "meshes" : [{"primitives" : [{"attributes" : {"POSITION" : 1, "NORMAL" : 2, "TEXCOORD_0" : 3}, "indices" : 0, "material" : 0, "mode" : 4}, {"attributes" : {"POSITION" : 5, "NORMAL" : 6, "TEXCOORD_0" : 7}, "indices" : 4, "material" : 1, "mode" : 4}]}, {"primitives" : [{"attributes" : {"POSITION" : 9, "NORMAL" : 10, "TEXCOORD_0" : 11}, "indices" : 8, "material" : 2, "mode" : 4}]}], "nodes" : [{"matrix" : [0.2887216806411743, 0, 0, 0, 0, 0.2887216806411743, 0, 0, 0, 0, 0.2887216806411743, 0, 0.3610082268714905, 0.3568854331970215, 0, 1], "mesh" : 0, "name" : "rake_stick"}, {"matrix" : [0.8547011613845825, 0, 0, 0, 0, 0.8547011613845825, 0, 0, 0, 0, 0.8547011613845825, 0, 0.7025146484375, 0.3209935426712036, 0, 1], "mesh" : 1, "name" : "rake_head"}], "scene" : 0, "scenes" : [{"nodes" : [0, 1]}]}